solid
 facet normal 0.000000 0.000000 1.000000
  outer loop
   vertex -0.01269999985 -0.01269999985 0.02539999783 
   vertex 0.01269999985 -0.01269999985 0.02539999783 
   vertex -0.01269999985 0.01269999985 0.02539999783 
  endloop
 endfacet
 facet normal 0.000000 0.000000 1.000000
  outer loop
   vertex -0.01269999985 0.01269999985 0.02539999783 
   vertex 0.01269999985 -0.01269999985 0.02539999783 
   vertex 0.01269999985 0.01269999985 0.02539999783 
  endloop
 endfacet
 facet normal 0.000000 1.000000 0.000000
  outer loop
   vertex -0.01269999985 0.01269999985 0.02539999783 
   vertex 0.01269999985 0.01269999985 0.02539999783 
   vertex -0.01269999985 0.01269999985 -9.313225746e-10 
  endloop
 endfacet
 facet normal 0.000000 1.000000 0.000000
  outer loop
   vertex -0.01269999985 0.01269999985 -9.313225746e-10 
   vertex 0.01269999985 0.01269999985 0.02539999783 
   vertex 0.01269999985 0.01269999985 -9.313225746e-10 
  endloop
 endfacet
 facet normal 0.000000 0.000000 -1.000000
  outer loop
   vertex -0.01269999985 0.01269999985 -9.313225746e-10 
   vertex 0.01269999985 0.01269999985 -9.313225746e-10 
   vertex -0.01269999985 -0.01269999985 -9.313225746e-10 
  endloop
 endfacet
 facet normal 0.000000 0.000000 -1.000000
  outer loop
   vertex -0.01269999985 -0.01269999985 -9.313225746e-10 
   vertex 0.01269999985 0.01269999985 -9.313225746e-10 
   vertex 0.01269999985 -0.01269999985 -9.313225746e-10 
  endloop
 endfacet
 facet normal 0.000000 -1.000000 0.000000
  outer loop
   vertex -0.01269999985 -0.01269999985 -9.313225746e-10 
   vertex 0.01269999985 -0.01269999985 -9.313225746e-10 
   vertex -0.01269999985 -0.01269999985 0.02539999783 
  endloop
 endfacet
 facet normal 0.000000 -1.000000 0.000000
  outer loop
   vertex -0.01269999985 -0.01269999985 0.02539999783 
   vertex 0.01269999985 -0.01269999985 -9.313225746e-10 
   vertex 0.01269999985 -0.01269999985 0.02539999783 
  endloop
 endfacet
 facet normal 1.000000 0.000000 0.000000
  outer loop
   vertex 0.01269999985 -0.01269999985 0.02539999783 
   vertex 0.01269999985 -0.01269999985 -9.313225746e-10 
   vertex 0.01269999985 0.01269999985 0.02539999783 
  endloop
 endfacet
 facet normal 1.000000 0.000000 0.000000
  outer loop
   vertex 0.01269999985 0.01269999985 0.02539999783 
   vertex 0.01269999985 -0.01269999985 -9.313225746e-10 
   vertex 0.01269999985 0.01269999985 -9.313225746e-10 
  endloop
 endfacet
 facet normal -1.000000 0.000000 0.000000
  outer loop
   vertex -0.01269999985 -0.01269999985 -9.313225746e-10 
   vertex -0.01269999985 -0.01269999985 0.02539999783 
   vertex -0.01269999985 0.01269999985 -9.313225746e-10 
  endloop
 endfacet
 facet normal -1.000000 0.000000 0.000000
  outer loop
   vertex -0.01269999985 0.01269999985 -9.313225746e-10 
   vertex -0.01269999985 -0.01269999985 0.02539999783 
   vertex -0.01269999985 0.01269999985 0.02539999783 
  endloop
 endfacet
endsolid
